P3
# CREATOR: GIMP PNM Filter Version 1.1
24 20
255
254
254
254
236
236
236
166
166
166
98
98
98
76
76
76
85
85
85
81
81
81
54
54
54
21
21
21
4
4
4
168
168
168
255
255
255
255
255
255
255
255
255
255
255
255
255
255
255
255
255
255
255
255
255
255
255
255
255
255
255
255
255
255
255
255
255
255
255
255
255
255
255
245
245
245
70
70
70
0
0
0
0
0
0
0
0
0
0
0
0
0
0
0
0
0
0
0
0
0
0
0
0
103
103
103
255
255
255
255
255
255
255
255
255
255
255
255
255
255
255
255
255
255
255
255
255
255
255
255
255
255
255
255
255
255
255
255
255
255
255
255
255
255
255
252
252
252
125
125
125
0
0
0
0
0
0
0
0
0
0
0
0
0
0
0
0
0
0
0
0
0
0
0
0
67
67
67
255
255
255
255
255
255
255
255
255
255
255
255
255
255
255
255
255
255
255
255
255
255
255
255
255
255
255
255
255
255
255
255
255
255
255
255
255
255
255
255
255
255
181
181
181
9
9
9
0
0
0
0
0
0
0
0
0
0
0
0
0
0
0
0
0
0
0
0
0
22
22
22
255
255
255
255
255
255
255
255
255
255
255
255
255
255
255
255
255
255
255
255
255
255
255
255
255
255
255
255
255
255
255
255
255
255
255
255
255
255
255
255
255
255
217
217
217
34
34
34
0
0
0
0
0
0
0
0
0
0
0
0
2
2
2
61
61
61
72
72
72
66
66
66
255
255
255
255
255
255
255
255
255
255
255
255
255
255
255
255
255
255
255
255
255
255
255
255
255
255
255
255
255
255
255
255
255
255
255
255
255
255
255
255
255
255
243
243
243
52
52
52
0
0
0
0
0
0
0
0
0
0
0
0
4
4
4
89
89
89
82
82
82
77
77
77
221
221
221
255
255
255
255
255
255
255
255
255
255
255
255
255
255
255
255
255
255
255
255
255
255
255
255
255
255
255
255
255
255
255
255
255
255
255
255
255
255
255
255
255
255
62
62
62
0
0
0
0
0
0
0
0
0
0
0
0
0
0
0
0
0
0
0
0
0
0
0
0
176
176
176
255
255
255
255
255
255
255
255
255
255
255
255
255
255
255
255
255
255
255
255
255
255
255
255
255
255
255
255
255
255
255
255
255
255
255
255
255
255
255
255
255
255
65
65
65
0
0
0
0
0
0
0
0
0
0
0
0
0
0
0
21
21
21
101
101
101
124
124
124
206
206
206
255
255
255
255
255
255
255
255
255
255
255
255
255
255
255
255
255
255
255
255
255
255
255
255
255
255
255
255
255
255
255
255
255
255
255
255
255
255
255
252
252
252
58
58
58
0
0
0
0
0
0
0
0
0
0
0
0
0
0
0
18
18
18
58
58
58
37
37
37
156
156
156
255
255
255
255
255
255
255
255
255
255
255
255
255
255
255
255
255
255
255
255
255
255
255
255
255
255
255
255
255
255
255
255
255
255
255
255
255
255
255
224
224
224
39
39
39
0
0
0
0
0
0
0
0
0
0
0
0
0
0
0
0
0
0
0
0
0
36
36
36
229
229
229
255
255
255
255
255
255
255
255
255
255
255
255
255
255
255
255
255
255
255
255
255
255
255
255
255
255
255
255
255
255
255
255
255
255
255
255
255
255
255
174
174
174
7
7
7
0
0
0
0
0
0
0
0
0
0
0
0
0
0
0
0
0
0
19
19
19
202
202
202
10
10
10
138
138
138
255
255
255
255
255
255
255
255
255
255
255
255
255
255
255
255
255
255
255
255
255
255
255
255
255
255
255
255
255
255
255
255
255
248
248
248
92
92
92
0
0
0
0
0
0
0
0
0
0
0
0
0
0
0
0
0
0
0
0
0
6
6
6
2
2
2
23
23
23
129
129
129
129
129
129
253
253
253
255
255
255
255
255
255
255
255
255
255
255
255
255
255
255
255
255
255
255
255
255
255
255
255
255
255
255
236
236
236
10
10
10
0
0
0
0
0
0
0
0
0
0
0
0
0
0
0
0
0
0
0
0
0
0
0
0
0
0
0
6
6
6
16
16
16
3
3
3
249
249
249
255
255
255
255
255
255
255
255
255
255
255
255
255
255
255
255
255
255
255
255
255
255
255
255
255
255
255
190
190
190
0
0
0
0
0
0
0
0
0
0
0
0
0
0
0
0
0
0
0
0
0
0
0
0
0
0
0
0
0
0
0
0
0
0
0
0
68
68
68
71
71
71
178
178
178
255
255
255
255
255
255
255
255
255
255
255
255
255
255
255
255
255
255
255
255
255
255
255
255
139
139
139
0
0
0
0
0
0
0
0
0
0
0
0
0
0
0
0
0
0
0
0
0
0
0
0
0
0
0
0
0
0
0
0
0
0
0
0
0
0
0
0
0
0
0
0
0
58
58
58
96
96
96
94
94
94
98
98
98
135
135
135
193
193
193
245
245
245
255
255
255
121
121
121
0
0
0
0
0
0
0
0
0
0
0
0
0
0
0
0
0
0
0
0
0
0
0
0
0
0
0
0
0
0
0
0
0
0
0
0
0
0
0
0
0
0
0
0
0
0
0
0
0
0
0
0
0
0
0
0
0
0
0
0
2
2
2
99
99
99
253
253
253
181
181
181
78
78
78
101
101
101
102
102
102
91
91
91
68
68
68
38
38
38
2
2
2
0
0
0
0
0
0
0
0
0
0
0
0
0
0
0
0
0
0
0
0
0
0
0
0
0
0
0
0
0
0
0
0
0
0
0
0
0
0
0
0
0
0
18
18
18
207
207
207
72
72
72
30
30
30
17
17
17
17
17
17
28
28
28
49
49
49
80
80
80
113
113
113
119
119
119
122
122
122
94
94
94
42
42
42
21
21
21
22
22
22
19
19
19
15
15
15
13
13
13
15
15
15
19
19
19
23
23
23
21
21
21
66
66
66
122
122
122
125
125
125
9
9
9
2
2
2
0
0
0
0
0
0
0
0
0
0
0
0
0
0
0
40
40
40
89
89
89
47
47
47
19
19
19
46
46
46
72
72
72
72
72
72
74
74
74
75
75
75
74
74
74
73
73
73
72
72
72
71
71
71
69
69
69
29
29
29
18
18
18
113
113
113
220
220
220
217
217
217
208
208
208
189
189
189
170
170
170
151
151
151
136
136
136
229
229
229
251
251
251
237
237
237
219
219
219
154
154
154
91
91
91
51
51
51
30
30
30
17
17
17
21
21
21
37
37
37
55
55
55
85
85
85
132
132
132
194
194
194
229
229
229
251
251
251
